<svg xmlns="http://www.w3.org/2000/svg" width="180" height="128" viewBox="0 0 180 128" role="img" aria-label="Auralith">
  <defs>
    <linearGradient id="auralith-gradient" x1="28" y1="106" x2="128" y2="18" gradientUnits="userSpaceOnUse">
      <stop offset="0" stop-color="#24C6FF"/>
      <stop offset="0.52" stop-color="#6268FF"/>
      <stop offset="1" stop-color="#C13DFF"/>
    </linearGradient>
    <filter id="auralith-glow" x="-45%" y="-55%" width="210%" height="220%">
      <feGaussianBlur stdDeviation="8" result="blur"/>
      <feColorMatrix in="blur" type="matrix" values="0.35 0 0 0 0.10  0 0.28 0 0 0.52  0 0 0.45 0 1  0 0 0 0.58 0" result="glow"/>
      <feMerge>
        <feMergeNode in="glow"/>
        <feMergeNode in="SourceGraphic"/>
      </feMerge>
    </filter>
  </defs>
  <g filter="url(#auralith-glow)">
    <path fill="url(#auralith-gradient)" d="M78.4 21.9c8.6-15.4 31-14.8 38.8 1l30.9 62.6c5.7 11.6-2.8 25-15.7 25h-6.2c-6.8 0-13-3.9-16-10l-13.8-27.6-16.9 30.4c-3.1 5.6-8.9 9-15.3 9H37.8c-13.2 0-21.6-14.1-15.2-25.7l55.8-64.7Z"/>
    <path fill="#071015" d="M92.2 72.8 79.4 96h23.2c7.2 0 13.1-5.8 13.1-13.1 0-7.7-6.8-13.9-14.5-12.9l-9 2.8Z" opacity=".36"/>
    <circle cx="145" cy="96" r="19.5" fill="url(#auralith-gradient)"/>
  </g>
</svg>
