<svg xmlns="http://www.w3.org/2000/svg" width="128" height="128" viewBox="0 0 128 128" role="img" aria-label="Auralith">
  <defs>
    <linearGradient id="auralith-gradient" x1="24" y1="104" x2="98" y2="18" gradientUnits="userSpaceOnUse">
      <stop offset="0" stop-color="#24C6FF"/>
      <stop offset="0.52" stop-color="#6268FF"/>
      <stop offset="1" stop-color="#C13DFF"/>
    </linearGradient>
  </defs>
  <path fill="url(#auralith-gradient)" d="M57.8 22.7c7.2-13 26.2-12.5 32.7.9l26.1 54c4.8 9.9-2.4 21.4-13.4 21.4h-5.4c-5.7 0-10.9-3.3-13.4-8.4L72.8 66.3 58.2 92.7c-2.6 4.7-7.6 7.6-12.9 7.6H22.9c-11.2 0-18.3-12-12.9-21.8l47.8-55.8Z"/>
  <path fill="#071015" d="M69.4 66.1 58.8 85.4h18.7c6.1 0 11.1-5 11.1-11.1 0-6.6-5.7-11.8-12.3-11l-6.9 2.8Z" opacity=".38"/>
  <circle cx="104" cy="87" r="16" fill="url(#auralith-gradient)"/>
</svg>
